<?xml version="1.0" standalone="no"?>
<!DOCTYPE svg PUBLIC "-//W3C//DTD SVG 20010904//EN"
 "http://www.w3.org/TR/2001/REC-SVG-20010904/DTD/svg10.dtd">
<svg version="1.0" xmlns="http://www.w3.org/2000/svg"
 width="1024.000000pt" height="1024.000000pt" viewBox="0 0 1024.000000 1024.000000"
 preserveAspectRatio="xMidYMid meet">
<metadata>
Created by potrace 1.14, written by Peter Selinger 2001-2017
</metadata>
<g transform="translate(0.000000,1024.000000) scale(0.100000,-0.100000)"
fill="#000000" stroke="none">
<path d="M1780 5120 l0 -2240 225 0 225 0 0 1797 0 1797 71 -69 c129 -128 312
-350 392 -477 16 -25 17 -130 17 -1538 l0 -1510 225 0 225 0 0 2200 0 2200
-225 0 -225 0 0 -327 0 -328 -92 91 c-164 161 -296 265 -635 502 l-203 141 0
-2239z"/>
<path d="M5234 7157 c-240 -411 -410 -782 -550 -1202 -54 -163 -78 -245 -145
-507 l-10 -38 -174 0 -175 0 0 -225 0 -225 131 0 132 0 -7 -32 c-11 -54 -44
-323 -58 -473 -8 -90 -13 -290 -13 -555 0 -427 10 -598 54 -900 l16 -115 224
-3 224 -2 -7 37 c-42 248 -66 534 -73 863 -8 380 12 682 68 1043 l21 137 239
0 239 0 0 -1040 0 -1040 220 0 220 0 0 2200 0 2200 -252 0 -253 0 -71 -123z
m136 -1222 l0 -525 -190 0 c-104 0 -190 2 -190 4 0 30 173 557 230 701 53 135
143 345 146 345 2 0 4 -236 4 -525z"/>
<path d="M7884 7157 c-240 -411 -410 -782 -550 -1202 -54 -163 -78 -245 -145
-507 l-10 -38 -174 0 -175 0 0 -225 0 -225 131 0 132 0 -7 -32 c-11 -54 -44
-323 -58 -473 -8 -90 -13 -290 -13 -555 0 -427 10 -598 54 -900 l16 -115 224
-3 224 -2 -7 37 c-42 248 -66 534 -73 863 -8 380 12 682 68 1043 l21 137 239
0 239 0 0 -1040 0 -1040 220 0 220 0 0 2200 0 2200 -252 0 -253 0 -71 -123z
m136 -1222 l0 -525 -190 0 c-104 0 -190 2 -190 4 0 30 173 557 230 701 53 135
143 345 146 345 2 0 4 -236 4 -525z"/>
</g>
</svg>
